<svg width="70" height="64" viewBox="0 0 70 64" fill="none" xmlns="http://www.w3.org/2000/svg">
<circle cx="32" cy="32" r="32" fill="#0E41FC"/>
<path d="M16.5182 26.5088C21.9029 23.8775 31.4359 29.6858 35.5293 32.9189C35.5843 32.8359 37.1134 39.3112 37.1683 39.2287C37.5247 38.694 37.5456 31.3425 37.901 30.8305C44.7913 20.9022 51.2688 15.2301 56.8659 12.2175C58.5665 14.284 60.3374 17.289 61.0103 18.5332C47.0396 29.9301 37.9616 46.3676 34.7006 54.7288C32.9491 43.0722 21.8492 31.0585 16.5182 26.5088Z" fill="#0029C0"/>
<path d="M69.1918 5.65344C49.0298 17.2134 37.5698 42.0273 34.3601 52.9893C31.6021 41.5291 19.5002 30.5256 13.7939 26.4563C18.9295 23.367 28.9313 28.3248 33.2902 31.1899C33.3377 31.1025 35.4238 37.4204 35.4714 37.3334C35.7799 36.7698 35.1618 29.4443 35.4714 28.9033C49.5275 4.3355 63.3565 3.22383 69.1918 5.65344Z" fill="white"/>
</svg>
