<svg width="74" height="33" viewBox="0 0 74 33" fill="none" xmlns="http://www.w3.org/2000/svg">
<path d="M66.6421 21.3964H64.8233L64.3477 23.2058H62.5848V19.1019H73.6654V23.2058H71.8933L71.4176 21.3964H69.5988V30.369L71.4176 30.9473V32.5702H64.8233V30.9473L66.6421 30.369V21.3964Z" fill="#2B2A44"/>
<path d="M50.1798 30.9473L51.6069 30.369V21.3964L50.1798 20.8181V19.1952L54.5729 19.1019H56.0186C57.6104 19.1019 58.8354 19.4315 59.6935 20.0906C60.5578 20.7435 60.9899 21.7135 60.9899 23.0006C60.9899 23.8649 60.7972 24.5987 60.4116 25.2018C60.0323 25.7988 59.5038 26.2682 58.826 26.6102C59.1432 26.9771 59.4105 27.3906 59.6282 27.8507L60.9153 30.4716L62.2118 30.9473V32.5702H58.6768L57.0725 29.0353C56.83 28.4881 56.6373 28.1026 56.4943 27.8787C56.3575 27.6549 56.1989 27.4994 56.0186 27.4124C55.8445 27.3253 55.5833 27.2818 55.2351 27.2818H54.5729V30.369L55.944 30.9473V32.5702H50.1798V30.9473ZM55.6548 25.2764C56.4072 25.2764 56.9917 25.1023 57.4083 24.7541C57.8311 24.3997 58.0426 23.9054 58.0426 23.2711C58.0426 22.7239 57.8716 22.2762 57.5296 21.928C57.1876 21.5736 56.7243 21.3964 56.1398 21.3964H54.5729V25.2764H55.6548Z" fill="#2B2A44"/>
<path d="M46.7381 26.6475H42.8767V30.2758H46.2998L46.7381 28.7088H48.4543V32.5702H38.4836V30.9473L39.92 30.369V21.3964L38.4836 20.8181V19.1952L42.8767 19.1019H48.2305V22.7861H46.505L46.0293 21.3964H42.8767V24.5489H46.7381V26.6475Z" fill="#2B2A44"/>
<path d="M26.3958 30.9473L27.8228 30.369V21.3964L26.3958 20.8181V19.1952L30.7888 19.1019H32.5983C34.0471 19.1019 35.1819 19.4594 36.0027 20.1745C36.8297 20.8896 37.2432 21.8689 37.2432 23.1126C37.2432 24.6919 36.7737 25.8827 35.8348 26.6848C34.9021 27.487 33.5559 27.888 31.7961 27.888H30.7888V30.369L32.2159 30.9473V32.5702H26.3958V30.9473ZM31.7961 25.6589C32.5983 25.6589 33.2139 25.4754 33.6429 25.1086C34.072 24.7355 34.2865 24.1976 34.2865 23.495C34.2865 22.8607 34.1155 22.3539 33.7735 21.9746C33.4377 21.5891 32.9527 21.3964 32.3185 21.3964H30.7888V25.6589H31.7961Z" fill="#2B2A44"/>
<path d="M11.8828 30.9473L13.0674 30.4716L16.9288 25.8081L13.3751 21.1818L12.2652 20.8181V19.1952L18.0014 19.1019V20.8181L17.0407 21.1445L19.0087 23.7655L20.8835 21.2192L19.8482 20.8181V19.1952L25.3512 19.1019V20.8181L24.092 21.2005L20.5757 25.6589L24.3065 30.4903L25.6403 30.9473V32.5702H19.7176V30.9473L20.5943 30.5649L18.4957 27.7388L16.3598 30.4903L17.563 30.9473V32.5702H11.8828V30.9473Z" fill="#2B2A44"/>
<path d="M8.926 26.6475H5.06458V30.2758H8.48763L8.926 28.7088H10.6422V32.5702H0.671509V30.9473L2.10788 30.369V21.3964L0.671509 20.8181V19.1952L5.06458 19.1019H10.4183V22.7861H8.69282L8.21714 21.3964H5.06458V24.5489H8.926V26.6475Z" fill="#2B2A44"/>
<path d="M52.8248 7.76588H48.9634V11.3941H52.3864L52.8248 9.82717H54.541V13.6886H44.5703V12.0657L46.0067 11.4874V2.51471L44.5703 1.93643V0.313516L48.9634 0.220245H54.3171V3.90445H52.5916L52.1159 2.51471H48.9634V5.66728H52.8248V7.76588Z" fill="#2B2A44"/>
<path d="M38.2092 0.220245C39.4963 0.220245 40.5161 0.49695 41.2685 1.05036C42.0271 1.60377 42.4064 2.42766 42.4064 3.52204C42.4064 5.13874 41.6447 6.18959 40.1212 6.6746C41.0104 6.92954 41.6851 7.31817 42.1452 7.84049C42.6116 8.36281 42.8448 8.99394 42.8448 9.7339C42.8448 12.3704 41.1908 13.6886 37.8827 13.6886H31.8108V12.0657L33.2378 11.4874V2.51471L31.8108 1.93643V0.313516L36.2039 0.220245H38.2092ZM37.3138 5.72324C38.0102 5.72324 38.5387 5.57401 38.8994 5.27554C39.2663 4.97707 39.4497 4.53559 39.4497 3.95109C39.4497 3.47851 39.3005 3.12098 39.002 2.87847C38.7035 2.63597 38.3118 2.51471 37.8268 2.51471H36.2039V5.72324H37.3138ZM37.7895 11.3941C38.4486 11.3941 38.9522 11.2511 39.3005 10.9651C39.6549 10.679 39.8321 10.2686 39.8321 9.7339C39.8321 9.04369 39.6269 8.53692 39.2165 8.21358C38.8123 7.89024 38.1781 7.72857 37.3138 7.72857H36.2039V11.3941H37.7895Z" fill="#2B2A44"/>
<path d="M4.05729 2.29447H2.23851L1.76282 4.10393H0V0H11.0806V4.10393H9.30845L8.83277 2.29447H7.01398V11.2671L8.83277 11.8454V13.4683H2.23851V11.8454L4.05729 11.2671V2.29447Z" fill="#2B2A44"/>
<circle cx="19.7456" cy="6.95983" r="6.73959" fill="#0E41FC"/>
<path d="M16.485 5.80332C17.6191 5.24914 19.6269 6.47243 20.489 7.15335C20.5006 7.13587 20.8226 8.49965 20.8342 8.48228C20.9093 8.36968 20.9137 6.82136 20.9885 6.71352C22.4397 4.6225 23.8039 3.42789 24.9828 2.7934C25.3409 3.22862 26.2775 5.39922 26.4192 5.66126C23.4768 8.06159 21.0013 9.98583 20.3145 11.7468C19.9456 9.29177 17.6078 6.76155 16.485 5.80332Z" fill="#0029C0"/>
<path d="M27.5787 1.41092C23.3324 3.84558 20.9187 9.07171 20.2427 11.3804C19.6619 8.96677 17.1131 6.64929 15.9113 5.79226C16.9929 5.14162 19.0994 6.1858 20.0174 6.78921C20.0274 6.77079 20.4668 8.10142 20.4768 8.08311C20.5418 7.96441 20.4116 6.42157 20.4768 6.30763C23.4372 1.13335 26.3497 0.899217 27.5787 1.41092Z" fill="white"/>
</svg>
