<svg width="73" height="47" viewBox="0 0 73 47" fill="none" xmlns="http://www.w3.org/2000/svg">
<path d="M41.3543 16.1626L41.2891 16.293V16.5971C41.2891 16.7274 41.2022 16.8361 41.0719 16.8361H41.0067C39.1602 20.225 36.9878 21.5067 33.2513 21.5067C29.102 21.5067 26.6037 19.3778 26.6037 15.6412C26.6037 14.1206 26.8861 12.6433 27.5379 10.6447H31.0137C30.4054 12.2089 30.1447 13.3385 30.1447 14.4682C30.1447 16.3799 31.1875 17.3792 33.6206 17.3792C35.2933 17.3792 36.814 16.9881 37.9219 16.2061C37.3136 16.0105 36.6836 15.7716 36.0536 15.4892V11.5789C38.4867 12.5347 39.8771 12.6868 41.0719 12.6868C41.2022 12.6868 41.2891 12.7737 41.2891 12.904V16.1409L41.3543 16.1626ZM35.3802 23.7226L36.814 22.2888L39.2688 24.7001L36.8574 27.1115L35.3802 25.6777L33.9464 27.1115L31.4916 24.7001L33.903 22.2888L35.3802 23.7226Z" fill="#2B2A44"/>
<path d="M45.9479 6.29995C46.3824 9.03716 46.5779 10.7751 46.5779 12.1437C46.5779 15.2719 44.7748 16.8361 41.1469 16.8361C41.0165 16.8361 40.9297 16.7274 40.9297 16.5971L40.9731 12.9257C40.9731 12.7954 41.06 12.7085 41.1903 12.7085C42.2331 12.7085 42.6893 12.1002 42.6893 10.6665C42.6893 9.97129 42.5155 8.7982 42.0376 6.29995H45.9479ZM43.8407 17.8571L46.2737 20.2684L43.8624 22.6798L41.4293 20.2684L43.8407 17.8571Z" fill="#2B2A44"/>
<path d="M64.4324 12.7085C64.5628 12.7085 64.6497 12.7954 64.6497 12.9257V16.5971C64.6497 16.7274 64.5628 16.8361 64.4324 16.8361H63.3245C62.8466 19.8557 60.3049 21.5067 54.7001 21.5067V18.3567C57.0246 18.3567 58.8059 18.0743 59.4142 16.8361H58.1542C54.8956 16.8361 52.7667 14.794 52.7667 11.3399C52.7667 8.10303 55.0911 5.64823 58.1108 5.64823C61.1087 5.64823 63.0855 7.73373 63.2811 11.253L63.3462 12.7085H64.4324ZM56.2425 11.2096C56.2425 12.3827 57.1549 12.9475 58.4801 12.9475C58.8711 12.9475 59.2187 12.9257 59.588 12.8823C59.5663 12.4261 59.5228 11.9699 59.5011 11.5137C59.4142 10.2754 58.7407 9.58026 57.7632 9.58026C56.9159 9.58026 56.2425 10.2754 56.2425 11.2096Z" fill="#2B2A44"/>
<path d="M68.9159 3.1717L67.2648 4.82272L64.8318 2.41136L67.2214 0L68.9159 1.65102L70.5669 0L73 2.41136L70.6103 4.82272L68.9159 3.1717ZM67.2214 6.29995H71.1317C71.5662 9.03716 71.7617 10.7751 71.7617 12.1437C71.7617 15.2719 69.9586 16.8361 66.3307 16.8361H64.4407C64.3104 16.8361 64.2235 16.7274 64.2235 16.5971L64.2669 12.9257C64.2669 12.7954 64.3538 12.7085 64.4842 12.7085H66.3742C67.4169 12.7085 67.8731 12.1002 67.8731 10.6665C67.8731 9.97129 67.6993 8.7982 67.2214 6.29995Z" fill="#2B2A44"/>
<path d="M8.20694 28.7544L6.55592 30.4054L4.12284 27.9941L6.51247 25.5827L8.20694 27.2337L9.85796 25.5827L12.291 27.9941L9.90141 30.4054L8.20694 28.7544ZM16.5707 35.4888C16.5707 38.5736 14.8327 40.1378 11.3135 40.1812H5.66524C1.90699 40.1812 0.212524 38.4216 0.212524 34.9023C0.212524 33.9682 0.321144 33.034 0.603556 31.7523H4.07939C3.86215 32.7299 3.77525 33.3816 3.77525 33.9464C3.77525 35.3368 4.62249 36.0536 6.64281 36.0536H11.1831C12.2259 36.0536 12.6821 35.4454 12.6821 34.0116C12.6821 33.3164 12.5083 32.1433 12.0304 29.6451H15.9407C16.3751 32.3823 16.5707 34.1202 16.5707 35.4888Z" fill="#2B2A44"/>
<path d="M25.7268 36.0536C25.8571 36.0536 25.944 36.1405 25.944 36.2709V39.9422C25.944 40.0726 25.8571 40.1812 25.7268 40.1812C24.9882 40.1812 24.293 39.8771 23.8151 39.3991V39.7033C23.8151 43.4832 21.773 44.8518 17.45 44.8518V41.7019C18.7317 41.7019 20.0134 41.1371 20.0134 39.5295C20.0134 36.9226 19.5572 34.0333 19.1444 30.6227H23.0547C23.2503 32.013 23.4023 33.3599 23.5327 34.6633C23.7716 35.8799 25.0534 36.0536 25.7268 36.0536Z" fill="#2B2A44"/>
<path d="M33.3271 36.0536C33.4575 36.0536 33.5444 36.1405 33.5444 36.2709V39.9422C33.5444 40.0726 33.4575 40.1812 33.3271 40.1812C32.0454 40.1812 30.8289 39.5947 29.8296 38.4867C28.9823 39.5512 27.6789 40.1812 25.7237 40.1812C25.5934 40.1812 25.5065 40.0726 25.5065 39.9422V36.2709C25.5065 36.1405 25.5934 36.0536 25.7237 36.0536C26.5058 36.0536 27.0706 35.793 27.3748 35.2716C27.7441 34.6416 27.7875 33.5988 27.7875 32.1433H31.372C31.372 33.3382 31.3068 34.4461 31.1113 35.4454C31.763 35.8364 32.5668 36.0536 33.3271 36.0536ZM27.0923 43.6136L29.5037 41.2022L31.9368 43.6136L29.5254 46.0249L27.0923 43.6136Z" fill="#2B2A44"/>
<path d="M53.5219 36.0536C53.6522 36.0536 53.7391 36.1405 53.7391 36.2709V39.9422C53.7391 40.0726 53.6522 40.1812 53.5219 40.1812C52.3054 40.1812 51.1323 39.6381 50.1547 38.6388C49.4161 39.5729 48.3733 40.1812 46.983 40.1812C45.6796 40.1812 44.702 39.6598 43.5723 38.8126C42.8337 39.6598 41.8344 40.1812 40.5527 40.1812C39.1841 40.1812 38.1631 39.5947 36.9683 38.6822C36.1645 39.6381 34.9697 40.1812 33.3186 40.1812C33.1883 40.1812 33.1014 40.0726 33.1014 39.9422V36.2709C33.1014 36.1405 33.1883 36.0536 33.3186 36.0536C33.9052 36.0536 34.3179 35.7712 34.5569 35.2716C34.861 34.6416 34.9697 33.5988 34.9697 32.1433H38.5541C38.5541 33.4902 38.4238 34.7068 38.1848 35.7712C38.6627 35.9668 39.1189 36.0536 39.6838 36.0536C40.4658 36.0536 41.0306 35.793 41.3348 35.2716C41.7041 34.6416 41.7475 33.5988 41.7475 32.1433H45.332C45.332 33.5337 45.2451 34.7937 44.9844 35.9016C45.332 36.0102 45.7013 36.0536 46.114 36.0536C46.8961 36.0536 47.4609 35.793 47.7651 35.2716C48.1344 34.6416 48.1778 33.5988 48.1778 32.1433V30.6227H51.7623V32.1433C51.7623 33.3816 51.6754 34.533 51.4799 35.5323C52.1098 35.8799 52.8267 36.0536 53.5219 36.0536Z" fill="#2B2A44"/>
<path d="M66.1367 22.9107V23.041L58.8809 28.9065L62.335 30.3403C64.855 31.383 65.9412 32.8385 65.9412 35.2281C65.9412 38.3781 63.8774 40.1812 60.2713 40.1812H53.5151C53.3848 40.1812 53.2979 40.0726 53.2979 39.9422V36.2709C53.2979 36.1405 53.3848 36.0536 53.5151 36.0536H60.4451C61.3357 36.0536 62.0092 35.7495 62.0092 35.163C62.0092 34.6199 61.4444 34.2288 60.4668 33.7944L54.7099 31.2527V28.5589L60.5971 22.9107H66.1367Z" fill="#2B2A44"/>
<path d="M71.9109 24.4313V40.1812H68.0006V24.4313H71.9109Z" fill="#2B2A44"/>
<circle cx="58.3203" cy="10.9981" r="5.74184" fill="#0E41FC"/>
<path d="M55.5425 10.0127C56.5087 9.54056 58.2192 10.5828 58.9537 11.1629C58.9636 11.148 59.238 12.3099 59.2478 12.2951C59.3118 12.1991 59.3155 10.88 59.3793 10.7881C60.6156 9.00669 61.7779 7.98893 62.7822 7.44838C63.0873 7.81916 63.8853 9.66842 64.006 9.89167C61.4992 11.9366 59.3901 13.576 58.805 15.0763C58.4907 12.9847 56.4991 10.8291 55.5425 10.0127Z" fill="#0029C0"/>
<path d="M64.9938 6.2706C61.3761 8.34482 59.3198 12.7973 58.7439 14.7642C58.249 12.7079 56.0775 10.7335 55.0536 10.0033C55.9751 9.44899 57.7698 10.3386 58.5519 10.8527C58.5604 10.837 58.9347 11.9706 58.9433 11.955C58.9986 11.8539 58.8877 10.5395 58.9433 10.4424C61.4654 6.03412 63.9468 5.83465 64.9938 6.2706Z" fill="white"/>
</svg>
