<svg width="16" height="17" viewBox="0 0 16 17" fill="none" xmlns="http://www.w3.org/2000/svg">
<g id="vuesax/linear/briefcase">
<g id="briefcase">
<path id="Vector" d="M5.33338 15.1667H10.6667C13.3467 15.1667 13.8267 14.0933 13.9667 12.7867L14.4667 7.45333C14.6467 5.82667 14.18 4.5 11.3334 4.5H4.66671C1.82005 4.5 1.35338 5.82667 1.53338 7.45333L2.03338 12.7867C2.17338 14.0933 2.65338 15.1667 5.33338 15.1667Z" stroke="#0E41FC" stroke-width="1.2" stroke-miterlimit="10" stroke-linecap="round" stroke-linejoin="round"/>
<path id="Vector_2" d="M5.3335 4.50001V3.96668C5.3335 2.78668 5.3335 1.83334 7.46683 1.83334H8.5335C10.6668 1.83334 10.6668 2.78668 10.6668 3.96668V4.50001" stroke="#0E41FC" stroke-width="1.2" stroke-miterlimit="10" stroke-linecap="round" stroke-linejoin="round"/>
<path id="Vector_3" d="M9.33317 9.16667V9.83333C9.33317 9.84 9.33317 9.84 9.33317 9.84667C9.33317 10.5733 9.3265 11.1667 7.99984 11.1667C6.67984 11.1667 6.6665 10.58 6.6665 9.85333V9.16667C6.6665 8.5 6.6665 8.5 7.33317 8.5H8.6665C9.33317 8.5 9.33317 8.5 9.33317 9.16667Z" stroke="#0E41FC" stroke-width="1.2" stroke-miterlimit="10" stroke-linecap="round" stroke-linejoin="round"/>
<path id="Vector_4" d="M14.4335 7.83331C12.8935 8.95331 11.1335 9.61998 9.3335 9.84665" stroke="#0E41FC" stroke-width="1.2" stroke-miterlimit="10" stroke-linecap="round" stroke-linejoin="round"/>
<path id="Vector_5" d="M1.74658 8.01331C3.24658 9.03997 4.93992 9.65997 6.66658 9.85331" stroke="#0E41FC" stroke-width="1.2" stroke-miterlimit="10" stroke-linecap="round" stroke-linejoin="round"/>
</g>
</g>
</svg>
