<svg width="38" height="38" viewBox="0 0 38 38" fill="none" xmlns="http://www.w3.org/2000/svg">
<g id="vuesax/linear/briefcase">
<g id="briefcase">
<path id="Vector" d="M12.666 34.8333H25.3327C31.6977 34.8333 32.8377 32.2842 33.1702 29.1808L34.3577 16.5142C34.7852 12.6508 33.6768 9.5 26.916 9.5H11.0827C4.32182 9.5 3.21349 12.6508 3.64099 16.5142L4.82849 29.1808C5.16099 32.2842 6.30099 34.8333 12.666 34.8333Z" stroke="#0E41FC" stroke-width="2" stroke-miterlimit="10" stroke-linecap="round" stroke-linejoin="round"/>
<path id="Vector_2" d="M12.666 9.49996V8.23329C12.666 5.43079 12.666 3.16663 17.7327 3.16663H20.266C25.3327 3.16663 25.3327 5.43079 25.3327 8.23329V9.49996" stroke="#0E41FC" stroke-width="2" stroke-miterlimit="10" stroke-linecap="round" stroke-linejoin="round"/>
<path id="Vector_3" d="M22.1673 20.5833V22.1667C22.1673 22.1825 22.1673 22.1825 22.1673 22.1983C22.1673 23.9242 22.1515 25.3333 19.0007 25.3333C15.8657 25.3333 15.834 23.94 15.834 22.2142V20.5833C15.834 19 15.834 19 17.4173 19H20.584C22.1673 19 22.1673 19 22.1673 20.5833Z" stroke="#0E41FC" stroke-width="2" stroke-miterlimit="10" stroke-linecap="round" stroke-linejoin="round"/>
<path id="Vector_4" d="M34.2785 17.4166C30.621 20.0766 26.441 21.66 22.166 22.1983" stroke="#0E41FC" stroke-width="2" stroke-miterlimit="10" stroke-linecap="round" stroke-linejoin="round"/>
<path id="Vector_5" d="M4.14941 17.8441C7.71191 20.2824 11.7336 21.7549 15.8344 22.2141" stroke="#0E41FC" stroke-width="2" stroke-miterlimit="10" stroke-linecap="round" stroke-linejoin="round"/>
</g>
</g>
</svg>
