<svg width="121" height="121" viewBox="0 0 121 121" fill="none" xmlns="http://www.w3.org/2000/svg">
<circle cx="60.5" cy="60.5" r="52.5" fill="#0E41FC" stroke="white" stroke-width="16"/>
<path d="M76.4166 71.7834L73.6666 72.4334C73.0499 72.5834 72.5666 73.05 72.4332 73.6667L71.8499 76.1167C71.5332 77.45 69.8332 77.8667 68.9499 76.8167L63.9666 71.0834C63.5666 70.6167 63.7832 69.8834 64.3832 69.7334C67.3332 69.0167 69.9832 67.3667 71.9332 65.0167C72.2499 64.6334 72.8166 64.5834 73.1666 64.9334L76.8666 68.6334C78.1332 69.9 77.6832 71.4834 76.4166 71.7834Z" fill="white"/>
<path d="M45.5 71.7834L48.25 72.4334C48.8667 72.5834 49.35 73.05 49.4834 73.6667L50.0667 76.1167C50.3834 77.45 52.0834 77.8667 52.9667 76.8167L57.95 71.0834C58.35 70.6167 58.1334 69.8834 57.5334 69.7334C54.5834 69.0167 51.9334 67.3667 49.9834 65.0167C49.6667 64.6334 49.1 64.5834 48.75 64.9334L45.05 68.6334C43.7834 69.9 44.2334 71.4834 45.5 71.7834Z" fill="white"/>
<path d="M60.9999 44.3333C54.5499 44.3333 49.3333 49.5499 49.3333 55.9999C49.3333 58.4166 50.0499 60.6333 51.2833 62.4833C53.0833 65.1499 55.9333 67.0333 59.2499 67.5166C59.8166 67.6166 60.3999 67.6666 60.9999 67.6666C61.5999 67.6666 62.1833 67.6166 62.7499 67.5166C66.0666 67.0333 68.9166 65.1499 70.7166 62.4833C71.9499 60.6333 72.6666 58.4166 72.6666 55.9999C72.6666 49.5499 67.4499 44.3333 60.9999 44.3333ZM66.0999 55.6333L64.7166 57.0166C64.4833 57.2499 64.3499 57.6999 64.4333 58.0333L64.8333 59.7499C65.1499 61.0999 64.4333 61.6333 63.2333 60.9166L61.5666 59.9333C61.2666 59.7499 60.7666 59.7499 60.4666 59.9333L58.7999 60.9166C57.5999 61.6166 56.8833 61.0999 57.1999 59.7499L57.5999 58.0333C57.6666 57.7166 57.5499 57.2499 57.3166 57.0166L55.8999 55.6333C55.0833 54.8166 55.3499 53.9999 56.4833 53.8166L58.2666 53.5166C58.5666 53.4666 58.9166 53.1999 59.0499 52.9333L60.0333 50.9666C60.5666 49.8999 61.4333 49.8999 61.9666 50.9666L62.9499 52.9333C63.0833 53.1999 63.4333 53.4666 63.7499 53.5166L65.5333 53.8166C66.6499 53.9999 66.9166 54.8166 66.0999 55.6333Z" fill="white"/>
</svg>
