<svg width="38" height="38" viewBox="0 0 38 38" fill="none" xmlns="http://www.w3.org/2000/svg">
<g id="vuesax/linear/clipboard">
<g id="clipboard">
<path id="Vector" d="M29.4968 11.3208C29.5602 12.2866 29.481 13.3791 29.291 14.5983L28.1352 22.0241C27.1535 28.2149 24.2877 30.3049 18.0968 29.3391L10.671 28.1674C8.5335 27.8349 6.88684 27.2649 5.6835 26.4099C3.38767 24.8107 2.72267 22.1824 3.356 18.1291L4.52767 10.7033C5.50934 4.51242 8.37517 2.42242 14.566 3.38825L21.9918 4.55992C26.9635 5.33575 29.291 7.36242 29.4968 11.3208Z" stroke="#838291" stroke-width="2" stroke-linecap="round" stroke-linejoin="round"/>
<path id="Vector_2" d="M32.4587 21.3275L30.0837 28.4683C28.1046 34.4216 24.9379 36.005 18.9846 34.0258L11.8437 31.6508C8.24957 30.4633 6.25457 28.8166 5.68457 26.41C6.8879 27.265 8.53457 27.835 10.6721 28.1675L18.0979 29.3391C24.2887 30.305 27.1546 28.215 28.1362 22.0241L29.2921 14.5983C29.4821 13.3791 29.5612 12.2866 29.4979 11.3208C33.2821 13.3316 34.1054 16.3716 32.4587 21.3275Z" stroke="#838291" stroke-width="2" stroke-linecap="round" stroke-linejoin="round"/>
<path id="Vector_3" d="M13.046 14.2184C14.5676 14.2184 15.801 12.9849 15.801 11.4634C15.801 9.94183 14.5676 8.70837 13.046 8.70837C11.5245 8.70837 10.291 9.94183 10.291 11.4634C10.291 12.9849 11.5245 14.2184 13.046 14.2184Z" stroke="#838291" stroke-width="2" stroke-linecap="round" stroke-linejoin="round"/>
</g>
</g>
</svg>
