<svg width="25" height="24" viewBox="0 0 25 24" fill="none" xmlns="http://www.w3.org/2000/svg">
<circle cx="11.562" cy="12" r="11.562" fill="#0E41FC"/>
<path d="M5.96822 10.016C7.91377 9.06523 11.3582 11.1638 12.8372 12.332C12.8571 12.302 13.4095 14.6416 13.4294 14.6118C13.5582 14.4186 13.5657 11.7624 13.6941 11.5774C16.1837 7.9902 18.5241 5.9408 20.5464 4.85231C21.1608 5.59894 21.8007 6.68471 22.0438 7.13426C16.996 11.2521 13.716 17.1912 12.5378 20.2122C11.9049 16.0005 7.89438 11.6598 5.96822 10.016Z" fill="#0029C0"/>
<path d="M24.9999 2.4806C17.7151 6.65737 13.5745 15.623 12.4147 19.5837C11.4182 15.443 7.04562 11.4672 4.98389 9.99698C6.83945 8.88077 10.4532 10.6721 12.0282 11.7073C12.0453 11.6757 12.799 13.9584 12.8162 13.927C12.9277 13.7234 12.7044 11.0766 12.8162 10.8811C17.8949 2.00441 22.8915 1.60275 24.9999 2.4806Z" fill="white"/>
</svg>
