<svg width="16" height="17" viewBox="0 0 16 17" fill="none" xmlns="http://www.w3.org/2000/svg">
<g id="vuesax/broken/crown">
<g id="crown">
<path id="Vector" d="M13.4001 4.29333C14.4401 3.54667 14.9401 3.92667 14.5135 5.13333L11.8201 12.6733C11.7268 12.94 11.4135 13.16 11.1335 13.16H4.8668C4.5868 13.16 4.27347 12.94 4.18013 12.6733L1.42013 4.94667C1.0268 3.84 1.4868 3.5 2.43347 4.18L5.03347 6.04C5.4668 6.34 5.96013 6.18667 6.1468 5.7L7.32013 2.57333C7.69347 1.57333 8.31347 1.57333 8.6868 2.57333L9.86013 5.7C10.0468 6.18667 10.5401 6.34 10.9668 6.04L11.3868 5.74" stroke="#0E41FC" stroke-width="1.2" stroke-linecap="round" stroke-linejoin="round"/>
<path id="Vector_2" d="M4.3335 15.1667H11.6668" stroke="#0E41FC" stroke-width="1.2" stroke-linecap="round" stroke-linejoin="round"/>
<path id="Vector_3" d="M6.3335 9.83331H9.66683" stroke="#0E41FC" stroke-width="1.2" stroke-linecap="round" stroke-linejoin="round"/>
</g>
</g>
</svg>
