<svg width="26" height="27" viewBox="0 0 26 27" fill="none" xmlns="http://www.w3.org/2000/svg">
<path d="M22.209 11.5392H19.0782C16.5107 11.5392 14.4198 9.44835 14.4198 6.88085V3.75002C14.4198 3.15419 13.9323 2.66669 13.3365 2.66669H8.74315C5.40648 2.66669 2.70898 4.83335 2.70898 8.70085V18.2992C2.70898 22.1667 5.40648 24.3334 8.74315 24.3334H17.2582C20.5948 24.3334 23.2923 22.1667 23.2923 18.2992V12.6225C23.2923 12.0267 22.8048 11.5392 22.209 11.5392ZM13.304 17.595L11.1373 19.7617C11.0615 19.8375 10.964 19.9025 10.8665 19.935C10.769 19.9784 10.6715 20 10.5632 20C10.4548 20 10.3573 19.9784 10.2598 19.935C10.1732 19.9025 10.0865 19.8375 10.0215 19.7725C10.0107 19.7617 9.99982 19.7617 9.99982 19.7509L7.83315 17.5842C7.51898 17.27 7.51898 16.75 7.83315 16.4359C8.14732 16.1217 8.66732 16.1217 8.98148 16.4359L9.75065 17.2267V12.6875C9.75065 12.2434 10.119 11.875 10.5632 11.875C11.0073 11.875 11.3757 12.2434 11.3757 12.6875V17.2267L12.1557 16.4467C12.4698 16.1325 12.9898 16.1325 13.304 16.4467C13.6182 16.7609 13.6182 17.2809 13.304 17.595Z" fill="#0E41FC"/>
<path d="M18.8815 10.0441C19.9107 10.055 21.3407 10.055 22.5648 10.055C23.1823 10.055 23.5073 9.32914 23.074 8.89581C21.514 7.32497 18.719 4.49747 17.1157 2.89414C16.6715 2.44997 15.9023 2.75331 15.9023 3.37081V7.15164C15.9023 8.73331 17.2457 10.0441 18.8815 10.0441Z" fill="#AFC0FD"/>
</svg>
