<svg width="82" height="82" viewBox="0 0 82 82" fill="none" xmlns="http://www.w3.org/2000/svg">
<circle cx="41" cy="41" r="38" fill="white" stroke="#F5F6F8" stroke-width="6"/>
<path d="M46.6995 26.315C46.0845 25.7 45.0195 26.12 45.0195 26.975V32.21C45.0195 34.4 46.8795 36.215 49.1445 36.215C50.5695 36.23 52.5495 36.23 54.2445 36.23C55.0995 36.23 55.5495 35.225 54.9495 34.625C52.7895 32.45 48.9195 28.535 46.6995 26.315Z" fill="#9EB2FE"/>
<path d="M53.75 38.285H49.415C45.86 38.285 42.965 35.39 42.965 31.835V27.5C42.965 26.675 42.29 26 41.465 26H35.105C30.485 26 26.75 29 26.75 34.355V47.645C26.75 53 30.485 56 35.105 56H46.895C51.515 56 55.25 53 55.25 47.645V39.785C55.25 38.96 54.575 38.285 53.75 38.285ZM40.25 49.625H34.25C33.635 49.625 33.125 49.115 33.125 48.5C33.125 47.885 33.635 47.375 34.25 47.375H40.25C40.865 47.375 41.375 47.885 41.375 48.5C41.375 49.115 40.865 49.625 40.25 49.625ZM43.25 43.625H34.25C33.635 43.625 33.125 43.115 33.125 42.5C33.125 41.885 33.635 41.375 34.25 41.375H43.25C43.865 41.375 44.375 41.885 44.375 42.5C44.375 43.115 43.865 43.625 43.25 43.625Z" fill="#0E41FC"/>
</svg>
