<svg width="64" height="64" viewBox="0 0 64 64" fill="none" xmlns="http://www.w3.org/2000/svg">
<circle opacity="0.05" cx="32" cy="32" r="32" fill="#0E41FC"/>
<path d="M40.0001 33.3334C38.7467 33.3334 37.5867 33.7734 36.6667 34.5067C35.4401 35.48 34.6667 36.9867 34.6667 38.6667C34.6667 39.6667 34.9467 40.6134 35.4401 41.4134C36.3601 42.96 38.0534 44 40.0001 44C41.3467 44 42.5734 43.5067 43.5068 42.6667C43.9201 42.32 44.2801 41.8934 44.5601 41.4134C45.0534 40.6134 45.3334 39.6667 45.3334 38.6667C45.3334 35.72 42.9467 33.3334 40.0001 33.3334ZM42.7601 38.0934L39.9201 40.72C39.7334 40.8933 39.4801 40.9867 39.2401 40.9867C38.9867 40.9867 38.7334 40.8934 38.5334 40.6934L37.2134 39.3734C36.8268 38.9867 36.8268 38.3467 37.2134 37.96C37.6001 37.5733 38.2401 37.5733 38.6268 37.96L39.2668 38.6001L41.4001 36.6267C41.8001 36.2533 42.4401 36.2801 42.8134 36.6801C43.1867 37.0801 43.1601 37.7067 42.7601 38.0934Z" fill="#2B2A44"/>
<path opacity="0.4" d="M44.1199 44.6666C44.1199 45.04 43.8265 45.3333 43.4532 45.3333H20.5465C20.1732 45.3333 19.8799 45.04 19.8799 44.6666C19.8799 39.1466 25.3199 34.6666 31.9999 34.6666C33.3732 34.6666 34.7066 34.8533 35.9332 35.2133C35.1466 36.1466 34.6665 37.36 34.6665 38.6666C34.6665 39.6666 34.9465 40.6133 35.4399 41.4133C35.7065 41.8666 36.0532 42.2799 36.4532 42.6266C37.3865 43.4799 38.6265 44 39.9999 44C41.4932 44 42.8399 43.3866 43.7999 42.3999C44.0132 43.1199 44.1199 43.88 44.1199 44.6666Z" fill="#2B2A44"/>
<path d="M31.9999 32C35.6818 32 38.6666 29.0152 38.6666 25.3333C38.6666 21.6514 35.6818 18.6666 31.9999 18.6666C28.318 18.6666 25.3333 21.6514 25.3333 25.3333C25.3333 29.0152 28.318 32 31.9999 32Z" fill="#292D32"/>
</svg>
