<svg width="64" height="64" viewBox="0 0 64 64" fill="none" xmlns="http://www.w3.org/2000/svg">
<circle opacity="0.05" cx="32" cy="32" r="32" fill="#0E41FC"/>
<path opacity="0.4" d="M42.4801 26.7866C42.4801 26.9866 42.4801 27.1866 42.4668 27.3733C40.4268 26.6133 38.0268 27.08 36.4268 28.52C35.3468 27.5466 33.9467 27 32.4534 27C29.1734 27 26.5068 29.68 26.5068 32.9866C26.5068 36.76 28.4001 39.52 30.2134 41.3066C30.0668 41.2933 29.9468 41.2666 29.8401 41.2266C26.3868 40.04 18.6667 35.1333 18.6667 26.7866C18.6667 23.1066 21.6267 20.1333 25.2801 20.1333C27.4534 20.1333 29.3734 21.1733 30.5734 22.7866C31.7867 21.1733 33.7067 20.1333 35.8667 20.1333C39.5201 20.1333 42.4801 23.1066 42.4801 26.7866Z" fill="#2B2A44"/>
<path d="M40 28.7866C38.5734 28.7866 37.28 29.48 36.48 30.5466C35.68 29.48 34.4 28.7866 32.96 28.7866C30.5334 28.7866 28.5601 30.76 28.5601 33.2133C28.5601 34.16 28.7067 35.0266 28.9734 35.8266C30.2267 39.7866 34.08 42.1466 35.9867 42.8C36.2534 42.8933 36.6934 42.8933 36.9734 42.8C38.8801 42.1466 42.7334 39.7866 43.9867 35.8266C44.2534 35.0133 44.4 34.1466 44.4 33.2133C44.4 30.76 42.4267 28.7866 40 28.7866Z" fill="#2B2A44"/>
</svg>
