<svg width="16" height="17" viewBox="0 0 16 17" fill="none" xmlns="http://www.w3.org/2000/svg">
<g id="vuesax/broken/image">
<g id="image">
<path id="Vector" d="M8.21985 9.06C7.57985 10.2133 6.38652 10.3133 5.55985 9.28L5.41319 9.09334C4.55319 8.01334 3.33985 8.14667 2.71985 9.38L1.57319 11.68C0.773186 13.28 1.93985 15.1667 3.72652 15.1667H12.2332C13.9599 15.1667 15.1265 13.4 14.4465 11.8067L12.3599 6.93334C11.6532 5.28 10.3532 5.21334 9.47985 6.78667" stroke="#0E41FC" stroke-width="1.2" stroke-linecap="round" stroke-linejoin="round"/>
<path id="Vector_2" d="M6.64648 3.83334C6.64648 4.94001 5.75315 5.83334 4.64648 5.83334C3.53982 5.83334 2.64648 4.94001 2.64648 3.83334C2.64648 2.72668 3.53982 1.83334 4.64648 1.83334C4.88648 1.83334 5.11315 1.87334 5.31982 1.95334" stroke="#0E41FC" stroke-width="1.2" stroke-linecap="round" stroke-linejoin="round"/>
</g>
</g>
</svg>
