<svg width="16" height="17" viewBox="0 0 16 17" fill="none" xmlns="http://www.w3.org/2000/svg">
<g id="vuesax/broken/layer">
<g id="layer">
<path id="Vector" d="M12.6134 4.19333C13.7467 4.69333 13.7467 5.51999 12.6134 6.01999L8.68002 7.76666C8.23335 7.96666 7.50002 7.96666 7.05335 7.76666L3.12002 6.01999C1.98669 5.51999 1.98669 4.69333 3.12002 4.19333L7.05335 2.44666C7.50002 2.24666 8.23335 2.24666 8.68002 2.44666L9.96002 3.01333" stroke="#0E41FC" stroke-width="1.2" stroke-linecap="round" stroke-linejoin="round"/>
<path id="Vector_2" d="M2 7.83331C2 8.39331 2.42 9.03998 2.93333 9.26665L7.46 11.28C7.80667 11.4333 8.2 11.4333 8.54 11.28L13.0667 9.26665C13.58 9.03998 14 8.39331 14 7.83331" stroke="#0E41FC" stroke-width="1.2" stroke-linecap="round" stroke-linejoin="round"/>
<path id="Vector_3" d="M2 11.1667C2 11.7867 2.36667 12.3467 2.93333 12.6L7.46 14.6134C7.80667 14.7667 8.2 14.7667 8.54 14.6134L13.0667 12.6C13.6333 12.3467 14 11.7867 14 11.1667" stroke="#0E41FC" stroke-width="1.2" stroke-linecap="round" stroke-linejoin="round"/>
</g>
</g>
</svg>
