<svg width="13" height="13" viewBox="0 0 13 13" fill="none" xmlns="http://www.w3.org/2000/svg">
<g id="vuesax/bulk/lock">
<g id="lock">
<path id="Vector" opacity="0.4" d="M6.91081 8.43752C6.91081 8.69928 6.69861 8.91148 6.43685 8.91148C6.17509 8.91148 5.96289 8.69928 5.96289 8.43752C5.96289 8.17576 6.17509 7.96356 6.43685 7.96356C6.69861 7.96356 6.91081 8.17576 6.91081 8.43752Z" fill="#04B500" stroke="#04B500" stroke-width="0.75"/>
<path id="Vector_2" d="M4.01497 5.47919H8.85872C9.91544 5.47919 10.4971 5.64539 10.8318 5.98011C11.1665 6.31482 11.3327 6.89643 11.3327 7.95315V8.9219C11.3327 9.97861 11.1665 10.5602 10.8318 10.8949C10.4971 11.2296 9.91544 11.3959 8.85872 11.3959H4.01497C2.95826 11.3959 2.37665 11.2296 2.04193 10.8949C1.70722 10.5602 1.54102 9.97861 1.54102 8.9219V7.95315C1.54102 6.89643 1.70722 6.31482 2.04193 5.98011C2.37665 5.64539 2.95826 5.47919 4.01497 5.47919ZM4.55143 8.43752C4.55143 9.47402 5.3938 10.3229 6.43685 10.3229C7.4799 10.3229 8.32227 9.47402 8.32227 8.43752C8.32227 7.40102 7.4799 6.5521 6.43685 6.5521C5.3938 6.5521 4.55143 7.40102 4.55143 8.43752Z" fill="#04B500" stroke="#04B500" stroke-width="0.625"/>
<path id="Vector_3" opacity="0.4" d="M3.89518 5.1719V4.56252C3.89518 3.03648 4.32747 2.02085 6.43685 2.02085C8.54622 2.02085 8.97852 3.03648 8.97852 4.56252V5.1719C9.24414 5.1771 9.48372 5.18752 9.70768 5.21877V4.56252C9.70768 3.15627 9.36914 1.29169 6.43685 1.29169C3.50456 1.29169 3.16602 3.15627 3.16602 4.56252V5.21356C3.38477 5.18752 3.62956 5.1719 3.89518 5.1719Z" fill="#04B500"/>
</g>
</g>
</svg>
