<svg width="38" height="38" viewBox="0 0 38 38" fill="none" xmlns="http://www.w3.org/2000/svg">
<g id="vuesax/linear/note-2">
<g id="note-2">
<path id="Vector" d="M34.2946 16.5301L32.743 23.1484C31.413 28.8642 28.7846 31.1759 23.8446 30.7009C23.053 30.6376 22.198 30.4951 21.2796 30.2734L18.6196 29.6401C12.0171 28.0726 9.97463 24.8109 11.5263 18.1926L13.078 11.5584C13.3946 10.2126 13.7746 9.04089 14.2496 8.07505C16.1021 4.24339 19.253 3.21422 24.5413 4.46505L27.1855 5.08255C33.8196 6.63422 35.8463 9.91172 34.2946 16.5301Z" stroke="#838291" stroke-width="2" stroke-linecap="round" stroke-linejoin="round"/>
<path id="Vector_2" d="M23.8451 30.7009C22.8634 31.3659 21.6284 31.9201 20.1242 32.4109L17.6226 33.2342C11.3367 35.2609 8.02755 33.5667 5.98505 27.2809L3.95839 21.0267C1.93172 14.7409 3.61005 11.4159 9.89589 9.38924L12.3976 8.56591C13.0467 8.36007 13.6642 8.18591 14.2501 8.07507C13.7751 9.04091 13.3951 10.2126 13.0784 11.5584L11.5267 18.1926C9.97505 24.8109 12.0176 28.0726 18.6201 29.6401L21.2801 30.2734C22.1984 30.4951 23.0534 30.6376 23.8451 30.7009Z" stroke="#838291" stroke-width="2" stroke-linecap="round" stroke-linejoin="round"/>
<path id="Vector_3" d="M20.0137 13.5058L27.6928 15.4533" stroke="#838291" stroke-width="2" stroke-linecap="round" stroke-linejoin="round"/>
<path id="Vector_4" d="M18.4619 19.6333L23.0536 20.805" stroke="#838291" stroke-width="2" stroke-linecap="round" stroke-linejoin="round"/>
</g>
</g>
</svg>
