<svg width="26" height="27" viewBox="0 0 26 27" fill="none" xmlns="http://www.w3.org/2000/svg">
<path d="M21.103 3.55501L21.4063 4.17251C21.558 4.47585 21.9372 4.75751 22.273 4.82251L22.6847 4.88751C23.9197 5.09335 24.2122 6.00335 23.3238 6.90251L22.9447 7.28168C22.6955 7.54168 22.5547 8.04001 22.6305 8.38668L22.6847 8.61418C23.0205 10.1092 22.2297 10.6833 20.9297 9.90335L20.648 9.74085C20.3122 9.54585 19.7705 9.54585 19.4347 9.74085L19.153 9.90335C17.8422 10.6942 17.0513 10.1092 17.398 8.61418L17.4522 8.38668C17.528 8.04001 17.3872 7.54168 17.138 7.28168L16.7588 6.89168C15.8705 5.99251 16.163 5.08251 17.398 4.87668L17.8097 4.81168C18.1347 4.75751 18.5247 4.46501 18.6763 4.16168L18.9797 3.54418C19.5647 2.37418 20.518 2.37418 21.103 3.55501Z" fill="#FDAFAF"/>
<path d="M23.3668 11.4309C22.9768 11.7125 21.8827 12.2325 20.3227 11.4309C20.1493 11.3442 19.9327 11.3334 19.7593 11.4309C19.1418 11.745 18.5785 11.875 18.1343 11.875C17.441 11.875 16.9535 11.6042 16.7152 11.4309C16.3143 11.1384 15.4693 10.3042 15.7618 8.53835C15.7943 8.35419 15.7402 8.17002 15.621 8.02919C14.8735 7.17335 14.4618 6.02502 14.7543 5.12585C14.8627 4.76835 14.6352 4.29169 14.2668 4.29169H7.58268C4.33268 4.29169 2.16602 5.91669 2.16602 9.70835V17.2917C2.16602 21.0834 4.33268 22.7084 7.58268 22.7084H18.416C21.666 22.7084 23.8327 21.0834 23.8327 17.2917V11.6259C23.8327 11.42 23.5402 11.3117 23.3668 11.4309ZM15.5343 13.5975C14.8193 14.1717 13.9093 14.4534 12.9993 14.4534C12.0893 14.4534 11.1685 14.1717 10.4643 13.5975L7.07352 10.8892C6.72685 10.6075 6.67268 10.0875 6.94352 9.74085C7.22518 9.39419 7.73435 9.32919 8.08102 9.61085L11.4718 12.3192C12.2952 12.98 13.6927 12.98 14.516 12.3192C14.8627 12.0375 15.3718 12.0917 15.6535 12.4492C15.946 12.7959 15.8918 13.3159 15.5343 13.5975Z" fill="#FC550E"/>
</svg>
