<svg width="27" height="27" viewBox="0 0 27 27" fill="none" xmlns="http://www.w3.org/2000/svg">
<path id="Vector" d="M15.7246 2.07444L18.0517 6.7672C18.3691 7.42045 19.2153 8.04704 19.9293 8.16703L24.1473 8.8736C26.8446 9.32688 27.4793 11.3 25.5356 13.2464L22.2564 16.5527C21.7011 17.1126 21.397 18.1925 21.5689 18.9657L22.5077 23.0585C23.2481 26.2981 21.5424 27.5513 18.6996 25.8582L14.7461 23.4985C14.0321 23.0719 12.8553 23.0719 12.1281 23.4985L8.17456 25.8582C5.34496 27.5513 3.62604 26.2848 4.3665 23.0585L5.30529 18.9657C5.47718 18.1925 5.17306 17.1126 4.61772 16.5527L1.33856 13.2464C-0.591915 11.3 0.0295392 9.32688 2.72692 8.8736L6.94487 8.16703C7.64566 8.04704 8.49189 7.42045 8.80923 6.7672L11.1364 2.07444C12.4057 -0.471916 14.4684 -0.471916 15.7246 2.07444Z" fill="#D8DA4A"/>
</svg>
