<svg width="21" height="21" viewBox="0 0 21 21" fill="none" xmlns="http://www.w3.org/2000/svg">
<g id="vuesax/bold/card">
<g id="card">
<path id="Vector" d="M19.1043 6.89657C19.1043 7.45418 18.6481 7.9104 18.0905 7.9104H3.22087C2.66326 7.9104 2.20703 7.45418 2.20703 6.89657V6.88812C2.20703 4.95338 3.77003 3.39038 5.70477 3.39038H15.5981C17.5329 3.39038 19.1043 4.96183 19.1043 6.89657Z" fill="#0E41FC"/>
<path id="Vector_2" d="M2.20703 10.1915V14.4243C2.20703 16.359 3.77003 17.922 5.70477 17.922H15.5981C17.5329 17.922 19.1043 16.3506 19.1043 14.4158V10.1915C19.1043 9.6339 18.6481 9.17767 18.0905 9.17767H3.22087C2.66326 9.17767 2.20703 9.6339 2.20703 10.1915ZM7.27621 15.0917H5.58649C5.24009 15.0917 4.95284 14.8045 4.95284 14.4581C4.95284 14.1117 5.24009 13.8244 5.58649 13.8244H7.27621C7.62261 13.8244 7.90986 14.1117 7.90986 14.4581C7.90986 14.8045 7.62261 15.0917 7.27621 15.0917ZM12.7678 15.0917H9.38837C9.04198 15.0917 8.75472 14.8045 8.75472 14.4581C8.75472 14.1117 9.04198 13.8244 9.38837 13.8244H12.7678C13.1142 13.8244 13.4015 14.1117 13.4015 14.4581C13.4015 14.8045 13.1142 15.0917 12.7678 15.0917Z" fill="#0E41FC"/>
</g>
</g>
</svg>
